<svg width="30" height="30" viewBox="0 0 30 30" fill="none" xmlns="http://www.w3.org/2000/svg">
<path d="M18.75 23.4375H25.3125V25.3125H18.75V23.4375ZM20.625 27.1875H23.4375V29.0625H20.625V27.1875ZM25.3125 21.5625H23.4375C23.4375 20.5312 23.8125 19.6875 24.5625 18.9375L25.0312 18.4688C25.7812 17.7188 26.25 16.5938 26.25 15.4688C26.25 13.125 24.375 11.25 22.0312 11.25C19.6875 11.25 17.8125 13.125 17.8125 15.4688C17.8125 16.5938 18.2812 17.625 19.0312 18.4688L19.5 18.9375C20.25 19.6875 20.625 20.5312 20.625 21.5625H18.75C18.75 21.0938 18.5625 20.625 18.1875 20.25L17.7188 19.7812C16.5938 18.6562 15.9375 17.0625 15.9375 15.4688C15.9375 12.0938 18.6562 9.375 22.0312 9.375C25.4062 9.375 28.125 12.0938 28.125 15.4688C28.125 17.0625 27.4688 18.6562 26.3438 19.7812L25.875 20.25C25.5 20.625 25.3125 21.0938 25.3125 21.5625ZM5.625 20.625H13.125V22.5H5.625V20.625Z" fill="white"/>
<path d="M11.25 18.75C11.7678 18.75 12.1875 18.3303 12.1875 17.8125C12.1875 17.2947 11.7678 16.875 11.25 16.875C10.7322 16.875 10.3125 17.2947 10.3125 17.8125C10.3125 18.3303 10.7322 18.75 11.25 18.75Z" fill="white"/>
<path d="M5.625 16.875H8.4375V18.75H5.625V16.875ZM5.625 13.125H12.1875V15H5.625V13.125ZM9.375 9.375H15.9375V11.25H9.375V9.375Z" fill="white"/>
<path d="M6.5625 11.25C7.08027 11.25 7.5 10.8303 7.5 10.3125C7.5 9.79473 7.08027 9.375 6.5625 9.375C6.04473 9.375 5.625 9.79473 5.625 10.3125C5.625 10.8303 6.04473 11.25 6.5625 11.25Z" fill="white"/>
<path d="M15 5.625H18.75V7.5H15V5.625Z" fill="white"/>
<path d="M12.1875 7.5C12.7053 7.5 13.125 7.08027 13.125 6.5625C13.125 6.04473 12.7053 5.625 12.1875 5.625C11.6697 5.625 11.25 6.04473 11.25 6.5625C11.25 7.08027 11.6697 7.5 12.1875 7.5Z" fill="white"/>
<path d="M5.625 5.625H9.375V7.5H5.625V5.625Z" fill="white"/>
<path d="M16.875 26.25H3.75V3.75H20.625V7.5H22.5V3.75C22.5 2.71875 21.6562 1.875 20.625 1.875H3.75C2.71875 1.875 1.875 2.71875 1.875 3.75V26.25C1.875 27.2812 2.71875 28.125 3.75 28.125H16.875V26.25Z" fill="white"/>
</svg>
