<svg width="42" height="42" viewBox="0 0 42 42" fill="none" xmlns="http://www.w3.org/2000/svg">
<rect width="42" height="42" rx="8" fill="#34C759" fill-opacity="0.2"/>
<path d="M29.75 16C28.7083 16 27.8229 15.6354 27.0938 14.9062C26.3646 14.1771 26 13.2917 26 12.25C26 11.2083 26.3646 10.3229 27.0938 9.59375C27.8229 8.86458 28.7083 8.5 29.75 8.5C30.7917 8.5 31.6771 8.86458 32.4063 9.59375C33.1354 10.3229 33.5 11.2083 33.5 12.25C33.5 13.2917 33.1354 14.1771 32.4063 14.9062C31.6771 15.6354 30.7917 16 29.75 16ZM21 33.5C19.2708 33.5 17.6458 33.1717 16.125 32.515C14.6042 31.8583 13.2813 30.9679 12.1563 29.8438C11.0313 28.7196 10.1408 27.3967 9.485 25.875C8.82917 24.3533 8.50083 22.7283 8.5 21C8.49917 19.2717 8.8275 17.6467 9.485 16.125C10.1425 14.6033 11.0329 13.2804 12.1563 12.1563C13.2796 11.0321 14.6025 10.1417 16.125 9.485C17.6475 8.82833 19.2725 8.5 21 8.5C21.375 8.5 21.75 8.52083 22.125 8.5625C22.5 8.60417 22.8646 8.65625 23.2188 8.71875C23.5521 8.78125 23.7971 8.96375 23.9538 9.26625C24.1104 9.56875 24.1258 9.87583 24 10.1875C23.875 10.5208 23.6563 10.7658 23.3438 10.9225C23.0313 11.0792 22.6979 11.1362 22.3438 11.0937C22.1146 11.0521 21.8908 11.0263 21.6725 11.0163C21.4542 11.0062 21.23 11.0008 21 11C18.2083 11 15.8438 11.9687 13.9063 13.9062C11.9688 15.8437 11 18.2083 11 21C11 23.7917 11.9688 26.1562 13.9063 28.0938C15.8438 30.0312 18.2083 31 21 31C23.7917 31 26.1562 30.0312 28.0938 28.0938C30.0312 26.1562 31 23.7917 31 21C31 20.7708 30.995 20.5471 30.985 20.3288C30.975 20.1104 30.9488 19.8863 30.9063 19.6562C30.8646 19.3021 30.9221 18.9688 31.0788 18.6562C31.2354 18.3438 31.48 18.125 31.8125 18C32.145 17.875 32.4575 17.8908 32.75 18.0475C33.0425 18.2042 33.2196 18.4488 33.2813 18.7812C33.3438 19.1354 33.3958 19.5 33.4375 19.875C33.4792 20.25 33.5 20.625 33.5 21C33.5 22.7292 33.1717 24.3542 32.515 25.875C31.8583 27.3958 30.9679 28.7188 29.8438 29.8438C28.7196 30.9688 27.3967 31.8596 25.875 32.5162C24.3533 33.1729 22.7283 33.5008 21 33.5ZM19.25 23.1875L16.5625 20.5312C16.3333 20.3021 16.0471 20.1875 15.7038 20.1875C15.3604 20.1875 15.0633 20.3125 14.8125 20.5625C14.5833 20.7917 14.4688 21.0833 14.4688 21.4375C14.4688 21.7917 14.5833 22.0833 14.8125 22.3125L18.3438 25.875C18.5938 26.125 18.8854 26.25 19.2188 26.25C19.5521 26.25 19.8438 26.125 20.0938 25.875L26.625 19.3438C26.9167 19.0521 27.0417 18.7446 27 18.4213C26.9583 18.0979 26.8229 17.8221 26.5938 17.5938C26.3646 17.3654 26.0883 17.2354 25.765 17.2038C25.4417 17.1721 25.1346 17.3021 24.8438 17.5938L19.25 23.1875Z" fill="#34C759"/>
</svg>
