<svg width="22" height="22" viewBox="0 0 22 22" fill="none" xmlns="http://www.w3.org/2000/svg">
<g clip-path="url(#clip0_1696_5118)">
<path d="M0.732422 11.0001C0.732422 12.3483 0.997977 13.6833 1.51393 14.9289C2.02987 16.1746 2.78611 17.3063 3.73946 18.2597C4.69281 19.213 5.8246 19.9693 7.07021 20.4852C8.31581 21.0012 9.65085 21.2667 10.9991 21.2667C12.3473 21.2667 13.6824 21.0012 14.928 20.4852C16.1736 19.9693 17.3054 19.213 18.2587 18.2597C19.2121 17.3063 19.9683 16.1746 20.4843 14.9289C21.0002 13.6833 21.2658 12.3483 21.2658 11.0001C21.2658 8.27718 20.1841 5.66581 18.2587 3.74044C16.3333 1.81506 13.722 0.733398 10.9991 0.733398C8.2762 0.733398 5.66483 1.81506 3.73946 3.74044C1.81409 5.66581 0.732422 8.27718 0.732422 11.0001Z" stroke="white" stroke-width="1.46667"/>
</g>
<g clip-path="url(#clip1_1696_5118)">
<path d="M3.66602 10.9998C3.66602 11.9629 3.8557 12.9165 4.22423 13.8062C4.59277 14.6959 5.13294 15.5043 5.8139 16.1853C6.49486 16.8663 7.30328 17.4064 8.193 17.775C9.08273 18.1435 10.0363 18.3332 10.9993 18.3332C11.9624 18.3332 12.916 18.1435 13.8057 17.775C14.6954 17.4064 15.5038 16.8663 16.1848 16.1853C16.8658 15.5043 17.4059 14.6959 17.7745 13.8062C18.143 12.9165 18.3327 11.9629 18.3327 10.9998C18.3327 9.05492 17.5601 7.18965 16.1848 5.81439C14.8095 4.43912 12.9443 3.6665 10.9993 3.6665C9.05443 3.6665 7.18917 4.43912 5.8139 5.81439C4.43863 7.18965 3.66602 9.05492 3.66602 10.9998Z" stroke="white" stroke-width="1.46667"/>
</g>
<g clip-path="url(#clip2_1696_5118)">
<path d="M6.80078 11C6.80078 11.5516 6.90942 12.0978 7.12049 12.6073C7.33156 13.1169 7.64093 13.5799 8.03093 13.9699C8.42094 14.3599 8.88394 14.6693 9.39351 14.8803C9.90308 15.0914 10.4492 15.2 11.0008 15.2C11.5523 15.2 12.0985 15.0914 12.6081 14.8803C13.1176 14.6693 13.5806 14.3599 13.9706 13.9699C14.3606 13.5799 14.67 13.1169 14.8811 12.6073C15.0921 12.0978 15.2008 11.5516 15.2008 11C15.2008 9.88614 14.7583 8.81785 13.9706 8.0302C13.183 7.24255 12.1147 6.80005 11.0008 6.80005C9.88687 6.80005 8.81859 7.24255 8.03093 8.0302C7.24328 8.81785 6.80078 9.88614 6.80078 11Z" stroke="white" stroke-width="1.46667"/>
</g>
<defs>
<clipPath id="clip0_1696_5118">
<rect width="22" height="22" fill="white"/>
</clipPath>
<clipPath id="clip1_1696_5118">
<rect width="17.6" height="17.6" fill="white" transform="translate(2.19922 2.19995)"/>
</clipPath>
<clipPath id="clip2_1696_5118">
<rect width="10.2667" height="10.2667" fill="white" transform="translate(5.86719 5.8667)"/>
</clipPath>
</defs>
</svg>
