<svg width="42" height="42" viewBox="0 0 42 42" fill="none" xmlns="http://www.w3.org/2000/svg">
<rect width="42" height="42" rx="8" fill="#EA580C" fill-opacity="0.2"/>
<path d="M25.3748 23.5H24.3873L24.0373 23.1625C24.8185 22.255 25.3895 21.186 25.7093 20.032C26.0291 18.8781 26.0899 17.6677 25.8873 16.4875C25.2998 13.0125 22.3998 10.2375 18.8998 9.8125C17.6694 9.65683 16.4196 9.78471 15.2461 10.1864C14.0727 10.588 13.0067 11.2528 12.1296 12.1298C11.2526 13.0068 10.5879 14.0728 10.1862 15.2463C9.78456 16.4197 9.65668 17.6695 9.81235 18.9C10.2373 22.4 13.0123 25.3 16.4873 25.8875C17.6675 26.0901 18.8779 26.0293 20.0319 25.7094C21.1858 25.3896 22.2548 24.8187 23.1623 24.0375L23.4998 24.3875V25.375L28.8123 30.6875C29.3248 31.2 30.1623 31.2 30.6748 30.6875C31.1873 30.175 31.1873 29.3375 30.6748 28.825L25.3748 23.5ZM17.8748 23.5C14.7623 23.5 12.2498 20.9875 12.2498 17.875C12.2498 14.7625 14.7623 12.25 17.8748 12.25C20.9873 12.25 23.4998 14.7625 23.4998 17.875C23.4998 20.9875 20.9873 23.5 17.8748 23.5Z" fill="#EA580C"/>
</svg>
