<svg width="42" height="42" viewBox="0 0 42 42" fill="none" xmlns="http://www.w3.org/2000/svg">
<rect width="42" height="42" rx="8" fill="#FFCC00" fill-opacity="0.2"/>
<g clip-path="url(#clip0_1696_4798)">
<path d="M10.7324 21C10.7324 22.3482 10.998 23.6833 11.5139 24.9289C12.0299 26.1745 12.7861 27.3063 13.7395 28.2596C14.6928 29.213 15.8246 29.9692 17.0702 30.4852C18.3158 31.0011 19.6509 31.2667 20.9991 31.2667C22.3473 31.2667 23.6824 31.0011 24.928 30.4852C26.1736 29.9692 27.3054 29.213 28.2587 28.2596C29.2121 27.3063 29.9683 26.1745 30.4843 24.9289C31.0002 23.6833 31.2658 22.3482 31.2658 21C31.2658 18.2771 30.1841 15.6657 28.2587 13.7404C26.3333 11.815 23.722 10.7333 20.9991 10.7333C18.2762 10.7333 15.6648 11.815 13.7395 13.7404C11.8141 15.6657 10.7324 18.2771 10.7324 21Z" stroke="#FFCC00" stroke-width="1.46667"/>
</g>
<g clip-path="url(#clip1_1696_4798)">
<path d="M13.666 21C13.666 21.963 13.8557 22.9166 14.2242 23.8063C14.5928 24.6961 15.1329 25.5045 15.8139 26.1854C16.4949 26.8664 17.3033 27.4066 18.193 27.7751C19.0827 28.1436 20.0363 28.3333 20.9993 28.3333C21.9624 28.3333 22.916 28.1436 23.8057 27.7751C24.6954 27.4066 25.5038 26.8664 26.1848 26.1854C26.8658 25.5045 27.4059 24.6961 27.7745 23.8063C28.143 22.9166 28.3327 21.963 28.3327 21C28.3327 19.0551 27.5601 17.1898 26.1848 15.8145C24.8095 14.4393 22.9443 13.6667 20.9993 13.6667C19.0544 13.6667 17.1892 14.4393 15.8139 15.8145C14.4386 17.1898 13.666 19.0551 13.666 21Z" stroke="#FFCC00" stroke-width="1.46667"/>
</g>
<path d="M16.8008 21C16.8008 21.5516 16.9094 22.0977 17.1205 22.6073C17.3316 23.1168 17.6409 23.5798 18.0309 23.9699C18.4209 24.3599 18.8839 24.6692 19.3935 24.8803C19.9031 25.0914 20.4492 25.2 21.0008 25.2C21.5523 25.2 22.0985 25.0914 22.6081 24.8803C23.1176 24.6692 23.5806 24.3599 23.9706 23.9699C24.3606 23.5798 24.67 23.1168 24.8811 22.6073C25.0921 22.0977 25.2008 21.5516 25.2008 21C25.2008 19.8861 24.7583 18.8178 23.9706 18.0302C23.183 17.2425 22.1147 16.8 21.0008 16.8C19.8869 16.8 18.8186 17.2425 18.0309 18.0302C17.2433 18.8178 16.8008 19.8861 16.8008 21Z" stroke="#FFCC00" stroke-width="1.46667"/>
<defs>
<clipPath id="clip0_1696_4798">
<rect width="22" height="22" fill="white" transform="translate(10 10)"/>
</clipPath>
<clipPath id="clip1_1696_4798">
<rect width="17.6" height="17.6" fill="white" transform="translate(12.1992 12.2)"/>
</clipPath>
</defs>
</svg>
