<svg width="30" height="30" viewBox="0 0 30 30" fill="none" xmlns="http://www.w3.org/2000/svg">
<path d="M15.0006 22.5V15.9375M15.0006 15.9375C15.6331 15.9382 16.2631 15.8588 16.8756 15.7013M15.0006 15.9375C14.3682 15.9382 13.7382 15.8588 13.1256 15.7013M17.8131 25.0488C15.9546 25.4005 14.0466 25.4005 12.1881 25.0488M16.8756 28.0275C15.629 28.1581 14.3722 28.1581 13.1256 28.0275M17.8131 22.5V22.26C17.8131 21.0313 18.6356 19.9813 19.6981 19.365C21.4831 18.3313 22.8774 16.7378 23.6649 14.8313C24.4524 12.9249 24.5891 10.8119 24.054 8.81984C23.5188 6.82777 22.3416 5.0678 20.7047 3.81264C19.0678 2.55748 17.0627 1.8772 15 1.8772C12.9373 1.8772 10.9322 2.55748 9.2953 3.81264C7.65843 5.0678 6.48121 6.82777 5.94604 8.81984C5.41087 10.8119 5.54762 12.9249 6.33511 14.8313C7.12261 16.7378 8.51687 18.3313 10.3019 19.365C11.3644 19.9813 12.1881 21.0313 12.1881 22.26V22.5" stroke="white" stroke-width="1.5" stroke-linecap="round" stroke-linejoin="round"/>
</svg>
