<svg width="30" height="30" viewBox="0 0 30 30" fill="none" xmlns="http://www.w3.org/2000/svg">
<path d="M19.3748 17.5H18.3873L18.0373 17.1625C18.8185 16.2549 19.3895 15.1859 19.7093 14.032C20.0291 12.878 20.0899 11.6677 19.8873 10.4875C19.2998 7.01247 16.3998 4.23747 12.8998 3.81247C11.6694 3.6568 10.4196 3.78468 9.24613 4.18633C8.07267 4.58798 7.00665 5.25274 6.12964 6.12976C5.25262 7.00677 4.58785 8.0728 4.18621 9.24625C3.78456 10.4197 3.65668 11.6695 3.81235 12.9C4.23735 16.4 7.01235 19.3 10.4873 19.8875C11.6675 20.09 12.8779 20.0292 14.0319 19.7094C15.1858 19.3896 16.2548 18.8187 17.1623 18.0375L17.4998 18.3875V19.375L22.8123 24.6875C23.3248 25.2 24.1623 25.2 24.6748 24.6875C25.1873 24.175 25.1873 23.3375 24.6748 22.825L19.3748 17.5ZM11.8748 17.5C8.76235 17.5 6.24985 14.9875 6.24985 11.875C6.24985 8.76247 8.76235 6.24997 11.8748 6.24997C14.9873 6.24997 17.4998 8.76247 17.4998 11.875C17.4998 14.9875 14.9873 17.5 11.8748 17.5Z" fill="white"/>
</svg>
