<svg width="24" height="24" viewBox="0 0 24 24" fill="none" xmlns="http://www.w3.org/2000/svg">
<path d="M12 16C10.886 16 9.941 15.612 9.165 14.836C8.38833 14.0587 8 13.1133 8 12C8 10.8867 8.38833 9.94167 9.165 9.165C9.94167 8.38833 10.8867 8 12 8C13.1133 8 14.0587 8.38833 14.836 9.165C15.6133 9.94167 16.0013 10.8867 16 12C15.9987 13.1133 15.6107 14.0587 14.836 14.836C14.0613 15.6133 13.116 16.0013 12 16ZM5 12.5H1.5V11.5H5V12.5ZM22.5 12.5H19V11.5H22.5V12.5ZM11.5 5V1.5H12.5V5H11.5ZM11.5 22.5V19H12.5V22.5H11.5ZM6.746 7.404L4.586 5.306L5.281 4.561L7.392 6.696L6.746 7.404ZM18.72 19.439L16.603 17.298L17.255 16.596L19.415 18.694L18.72 19.439ZM16.596 6.745L18.694 4.585L19.439 5.28L17.304 7.391L16.596 6.745ZM4.562 18.72L6.702 16.603L7.366 17.255L5.286 19.434L4.562 18.72Z" fill="white"/>
</svg>
