<svg width="30" height="30" viewBox="0 0 30 30" fill="none" xmlns="http://www.w3.org/2000/svg">
<path d="M13.75 18.75H21.25V21.25H13.75V18.75ZM11.25 8.75H8.75V11.25H11.25V8.75ZM13.75 16.25H21.25V13.75H13.75V16.25ZM13.75 11.25H21.25V8.75H13.75V11.25ZM11.25 13.75H8.75V16.25H11.25V13.75ZM26.25 6.25V23.75C26.25 25.125 25.125 26.25 23.75 26.25H6.25C4.875 26.25 3.75 25.125 3.75 23.75V6.25C3.75 4.875 4.875 3.75 6.25 3.75H23.75C25.125 3.75 26.25 4.875 26.25 6.25ZM23.75 6.25H6.25V23.75H23.75V6.25ZM11.25 18.75H8.75V21.25H11.25V18.75Z" fill="white"/>
</svg>
