<svg width="30" height="30" viewBox="0 0 30 30" fill="none" xmlns="http://www.w3.org/2000/svg">
<path d="M3.95057 5.58627C5.40065 4.13593 7.34557 3.28763 9.39507 3.21159C11.4446 3.13554 13.447 3.83738 15.0006 5.17627C16.5528 3.83961 18.5526 3.13856 20.5996 3.21347C22.6466 3.28839 24.5898 4.13374 26.0402 5.58028C27.4905 7.02682 28.3409 8.9678 28.4212 11.0146C28.5015 13.0615 27.8057 15.0631 26.4731 16.6188L16.7668 26.3563C16.3209 26.8024 15.7228 27.0634 15.0925 27.0871C14.4621 27.1107 13.8462 26.8952 13.3681 26.4838L13.2306 26.3575L3.52557 16.6188C2.19368 15.0644 1.49755 13.0647 1.57634 11.0192C1.65513 8.97384 2.50305 7.03354 3.95057 5.58627ZM5.71807 7.35377C4.69587 8.37625 4.10664 9.75308 4.07265 11.1985C4.03867 12.6439 4.56255 14.0469 5.53557 15.1163L5.71807 15.3088L14.9993 24.59L21.6281 17.9588L17.2093 13.5413L15.8843 14.8663C15.1812 15.5698 14.2274 15.9651 13.2327 15.9653C12.2381 15.9656 11.2841 15.5707 10.5806 14.8675C9.87708 14.1644 9.48174 13.2106 9.4815 12.2159C9.48127 11.2213 9.87616 10.2673 10.5793 9.56377L13.2068 6.93502C12.1613 6.10025 10.8524 5.66549 9.51516 5.70879C8.17794 5.75209 6.89994 6.27061 5.91057 7.17127L5.71807 7.35377ZM16.3256 10.8888C16.56 10.6544 16.8779 10.5228 17.2093 10.5228C17.5408 10.5228 17.8587 10.6544 18.0931 10.8888L23.3956 16.1913L24.2806 15.3088C25.3199 14.2702 25.9116 12.8662 25.9291 11.397C25.9466 9.92778 25.3886 8.51004 24.3743 7.44697C23.3601 6.38389 21.9701 5.75986 20.5018 5.70834C19.0334 5.65682 17.6031 6.18189 16.5168 7.17127L16.3256 7.35377L12.3481 11.3313C12.1314 11.5478 12.0018 11.8363 11.9838 12.1421C11.9658 12.4479 12.0608 12.7496 12.2506 12.99L12.3481 13.0988C12.5646 13.3154 12.8531 13.4451 13.1589 13.463C13.4647 13.481 13.7664 13.3861 14.0068 13.1963L14.1156 13.0988L16.3256 10.8888Z" fill="white"/>
</svg>
