<svg width="30" height="30" viewBox="0 0 30 30" fill="none" xmlns="http://www.w3.org/2000/svg">
<path d="M11.25 5.62495H10C7.05375 5.62495 5.58 5.62495 4.665 6.53995C3.75 7.45495 3.75 8.9287 3.75 11.875V12.5M11.25 24.375H10C7.05375 24.375 5.58 24.375 4.665 23.46C3.75 22.5437 3.75 21.0712 3.75 18.125V17.5M17.0725 2.9337C14.37 2.46245 13.0188 2.22745 12.135 3.0112C11.2513 3.79495 11.25 5.2287 11.25 8.09495V21.905C11.25 24.7712 11.25 26.205 12.1337 26.9887C13.0175 27.7725 14.3687 27.5375 17.0712 27.0662L19.9838 26.5587C22.9763 26.0362 24.4725 25.775 25.3612 24.6775C26.25 23.5787 26.25 21.9912 26.25 18.815V11.185C26.25 8.00995 26.25 6.42245 25.3625 5.3237C24.7675 4.58995 23.9025 4.22995 22.5 3.9162M15 13.75V16.25" stroke="white" stroke-width="1.5" stroke-linecap="round"/>
</svg>
