<svg width="30" height="30" viewBox="0 0 30 30" fill="none" xmlns="http://www.w3.org/2000/svg">
<g clip-path="url(#clip0_1696_4747)">
<path d="M26.2502 17.8125V5.625C26.2502 5.12772 26.0527 4.65081 25.7011 4.29917C25.3494 3.94754 24.8725 3.75 24.3752 3.75H5.62524C5.12796 3.75 4.65104 3.94754 4.29941 4.29917C3.94778 4.65081 3.75024 5.12772 3.75024 5.625V17.8125M26.2502 17.8125H3.75024M26.2502 17.8125L28.9002 23.6138C29.027 23.8991 29.0805 24.2117 29.0559 24.523C29.0312 24.8343 28.9292 25.1345 28.7591 25.3964C28.589 25.6583 28.3561 25.8735 28.0817 26.0226C27.8073 26.1717 27.5 26.2498 27.1877 26.25H2.81274C2.50035 26.25 2.1929 26.172 1.91832 26.023C1.64374 25.8741 1.41073 25.6588 1.24047 25.3969C1.07021 25.135 0.968083 24.8347 0.943374 24.5233C0.918666 24.2119 0.972158 23.8992 1.09899 23.6138L3.75024 17.8125M13.1252 22.5H16.8752" stroke="white" stroke-width="1.80833" stroke-linecap="round" stroke-linejoin="round"/>
</g>
<defs>
<clipPath id="clip0_1696_4747">
<rect width="30" height="30" fill="white"/>
</clipPath>
</defs>
</svg>
