<svg width="30" height="30" viewBox="0 0 30 30" fill="none" xmlns="http://www.w3.org/2000/svg">
<g clip-path="url(#clip0_1696_4743)">
<path d="M0.9375 29.0625H29.0625M5.225 11.55L25.3125 2.425M25.3125 2.425L23.825 6.4125M25.3125 2.425L21.3375 0.9375M7.5 20.3125H3.75C3.50237 20.3157 3.26579 20.4155 3.09067 20.5907C2.91555 20.7658 2.81574 21.0024 2.8125 21.25V29.0625H8.4375V21.25C8.43426 21.0024 8.33445 20.7658 8.15933 20.5907C7.98421 20.4155 7.74763 20.3157 7.5 20.3125ZM16.875 15.3125H13.125C12.8774 15.3157 12.6408 15.4155 12.4657 15.5907C12.2905 15.7658 12.1907 16.0024 12.1875 16.25V29.0625H17.8125V16.25C17.8093 16.0024 17.7095 15.7658 17.5343 15.5907C17.3592 15.4155 17.1226 15.3157 16.875 15.3125ZM26.25 10.3125H22.5C22.2524 10.3157 22.0158 10.4155 21.8407 10.5907C21.6655 10.7658 21.5657 11.0024 21.5625 11.25V29.0625H27.1875V11.25C27.1843 11.0024 27.0845 10.7658 26.9093 10.5907C26.7342 10.4155 26.4976 10.3157 26.25 10.3125Z" stroke="white" stroke-width="1.35625" stroke-linecap="round" stroke-linejoin="round"/>
</g>
<defs>
<clipPath id="clip0_1696_4743">
<rect width="30" height="30" fill="white"/>
</clipPath>
</defs>
</svg>
