<svg width="30" height="30" viewBox="0 0 30 30" fill="none" xmlns="http://www.w3.org/2000/svg">
<path d="M24.8746 15.8251C24.6742 15.5969 24.5637 15.3037 24.5637 15.0001C24.5637 14.6964 24.6742 14.4032 24.8746 14.1751L26.4746 12.3751C26.6509 12.1784 26.7604 11.9309 26.7874 11.6682C26.8143 11.4054 26.7573 11.1409 26.6246 10.9126L24.1246 6.58755C23.9933 6.35945 23.7932 6.17865 23.5531 6.07091C23.3129 5.96317 23.0448 5.934 22.7871 5.98755L20.4371 6.46255C20.1381 6.52434 19.8268 6.47454 19.562 6.32255C19.2972 6.17057 19.0971 5.92691 18.9996 5.63755L18.2371 3.35005C18.1533 3.10178 17.9935 2.88613 17.7804 2.7336C17.5673 2.58108 17.3117 2.49938 17.0496 2.50005H12.0496C11.777 2.48582 11.5073 2.56121 11.2816 2.71469C11.0559 2.86818 10.8866 3.09133 10.7996 3.35005L10.0996 5.63755C10.0021 5.92691 9.80209 6.17057 9.53727 6.32255C9.27244 6.47454 8.96115 6.52434 8.66213 6.46255L6.24963 5.98755C6.00531 5.95303 5.75625 5.99158 5.53381 6.09835C5.31137 6.20512 5.1255 6.37534 4.99963 6.58755L2.49963 10.9126C2.36358 11.1384 2.3024 11.4014 2.32485 11.6641C2.34731 11.9268 2.45223 12.1756 2.62463 12.3751L4.21213 14.1751C4.41252 14.4032 4.52304 14.6964 4.52304 15.0001C4.52304 15.3037 4.41252 15.5969 4.21213 15.8251L2.62463 17.6251C2.45223 17.8245 2.34731 18.0734 2.32485 18.336C2.3024 18.5987 2.36358 18.8617 2.49963 19.0876L4.99963 23.4126C5.131 23.6406 5.33102 23.8215 5.57119 23.9292C5.81136 24.0369 6.07941 24.0661 6.33713 24.0126L8.68713 23.5376C8.98615 23.4758 9.29744 23.5256 9.56227 23.6776C9.82709 23.8295 10.0271 24.0732 10.1246 24.3626L10.8871 26.6501C10.9741 26.9088 11.1434 27.1319 11.3691 27.2854C11.5948 27.4389 11.8645 27.5143 12.1371 27.5001H17.1371C17.3992 27.5007 17.6548 27.419 17.8679 27.2665C18.081 27.114 18.2408 26.8983 18.3246 26.6501L19.0871 24.3626C19.1846 24.0732 19.3847 23.8295 19.6495 23.6776C19.9143 23.5256 20.2256 23.4758 20.5246 23.5376L22.8746 24.0126C23.1323 24.0661 23.4004 24.0369 23.6406 23.9292C23.8807 23.8215 24.0808 23.6406 24.2121 23.4126L26.7121 19.0876C26.8448 18.8592 26.9018 18.5947 26.8749 18.3319C26.8479 18.0692 26.7384 17.8217 26.5621 17.6251L24.8746 15.8251ZM23.0121 17.5001L24.0121 18.6251L22.4121 21.4001L20.9371 21.1001C20.0368 20.916 19.1003 21.069 18.3054 21.5298C17.5104 21.9907 16.9123 22.7274 16.6246 23.6001L16.1496 25.0001H12.9496L12.4996 23.5751C12.2119 22.7024 11.6139 21.9657 10.8189 21.5048C10.0239 21.044 9.0874 20.891 8.18713 21.0751L6.71213 21.3751L5.08713 18.6126L6.08713 17.4876C6.70207 16.8 7.04204 15.91 7.04204 14.9876C7.04204 14.0651 6.70207 13.1751 6.08713 12.4876L5.08713 11.3626L6.68713 8.61255L8.16213 8.91255C9.0624 9.09658 9.99891 8.94365 10.7939 8.4828C11.5889 8.02195 12.1869 7.28525 12.4746 6.41255L12.9496 5.00005H16.1496L16.6246 6.42505C16.9123 7.29775 17.5104 8.03445 18.3054 8.4953C19.1003 8.95615 20.0368 9.10908 20.9371 8.92505L22.4121 8.62505L24.0121 11.4001L23.0121 12.5251C22.4041 13.211 22.0683 14.0959 22.0683 15.0126C22.0683 15.9292 22.4041 16.8141 23.0121 17.5001ZM14.5496 10.0001C13.5607 10.0001 12.594 10.2933 11.7718 10.8427C10.9495 11.3921 10.3087 12.173 9.93023 13.0866C9.55179 14.0003 9.45277 15.0056 9.6457 15.9755C9.83863 16.9454 10.3148 17.8363 11.0141 18.5356C11.7134 19.2348 12.6043 19.7111 13.5742 19.904C14.5441 20.0969 15.5494 19.9979 16.463 19.6194C17.3767 19.241 18.1576 18.6001 18.707 17.7779C19.2564 16.9557 19.5496 15.989 19.5496 15.0001C19.5496 13.674 19.0228 12.4022 18.0852 11.4645C17.1475 10.5268 15.8757 10.0001 14.5496 10.0001ZM14.5496 17.5001C14.0552 17.5001 13.5718 17.3534 13.1607 17.0787C12.7496 16.804 12.4291 16.4136 12.2399 15.9568C12.0507 15.4999 12.0012 14.9973 12.0977 14.5123C12.1941 14.0274 12.4322 13.5819 12.7819 13.2323C13.1315 12.8827 13.5769 12.6446 14.0619 12.5481C14.5469 12.4516 15.0495 12.5011 15.5063 12.6904C15.9632 12.8796 16.3536 13.2 16.6283 13.6111C16.903 14.0222 17.0496 14.5056 17.0496 15.0001C17.0496 15.6631 16.7862 16.299 16.3174 16.7678C15.8486 17.2367 15.2127 17.5001 14.5496 17.5001Z" fill="white"/>
</svg>
