<svg width="21" height="24" viewBox="0 0 21 24" fill="none" xmlns="http://www.w3.org/2000/svg">
<path d="M6.75 6C6.75 3.92812 8.42813 2.25 10.5 2.25C12.5719 2.25 14.25 3.92812 14.25 6C14.25 8.07187 12.5719 9.75 10.5 9.75C8.42813 9.75 6.75 8.07187 6.75 6ZM16.5 6C16.5 2.68594 13.8141 0 10.5 0C7.18594 0 4.5 2.68594 4.5 6C4.5 9.31406 7.18594 12 10.5 12C13.8141 12 16.5 9.31406 16.5 6ZM2.25 22.5C2.25 19.1859 4.93594 16.5 8.25 16.5H12.75C16.0641 16.5 18.75 19.1859 18.75 22.5V22.875C18.75 23.4984 19.2516 24 19.875 24C20.4984 24 21 23.4984 21 22.875V22.5C21 17.9438 17.3062 14.25 12.75 14.25H8.25C3.69375 14.25 0 17.9438 0 22.5V22.875C0 23.4984 0.501562 24 1.125 24C1.74844 24 2.25 23.4984 2.25 22.875V22.5Z" fill="white"/>
</svg>
