<svg width="20" height="24" viewBox="0 0 20 24" fill="none" xmlns="http://www.w3.org/2000/svg">
<path d="M17.5 14.0001H11.5C11.4535 14.0018 11.4075 13.9893 11.3682 13.9643C11.329 13.9393 11.2982 13.9029 11.28 13.8601L10.32 12.0001C10.2837 11.9244 10.229 11.8591 10.1608 11.8102C10.0927 11.7613 10.0133 11.7303 9.93 11.7201C9.84595 11.7104 9.76081 11.7218 9.68225 11.7532C9.6037 11.7846 9.53419 11.8351 9.48 11.9001L7.6 14.2101C7.44533 14.374 7.23479 14.4739 7.01 14.4901H6.01C5.94265 14.4887 5.87572 14.501 5.81323 14.5261C5.75074 14.5513 5.69398 14.5888 5.64634 14.6364C5.59871 14.6841 5.5612 14.7408 5.53605 14.8033C5.5109 14.8658 5.49864 14.9327 5.5 15.0001V21.0001C5.49837 21.078 5.51572 21.1551 5.55057 21.2248C5.58541 21.2945 5.6367 21.3546 5.7 21.4001C8 23.1301 9.78 24.0001 11 24.0001H16.55C16.9854 24.0737 17.4324 23.9751 17.7964 23.725C18.1603 23.4749 18.4127 23.093 18.5 22.6601C18.9872 20.2974 19.3212 17.9058 19.5 15.5001C19.5 14.7501 18.81 14.0001 17.5 14.0001ZM3.33 13.5001H0.25C0.183696 13.5001 0.120107 13.5264 0.0732234 13.5733C0.0263393 13.6202 0 13.6838 0 13.7501V22.7501C0 22.8164 0.0263393 22.88 0.0732234 22.9269C0.120107 22.9737 0.183696 23.0001 0.25 23.0001H3.33C3.41363 23.0099 3.49839 23.002 3.57878 22.9769C3.65916 22.9519 3.73336 22.9101 3.79656 22.8545C3.85975 22.7988 3.91053 22.7305 3.94558 22.6539C3.98063 22.5774 3.99917 22.4943 4 22.4101V14.0901C3.99917 14.0059 3.98063 13.9228 3.94558 13.8462C3.91053 13.7697 3.85975 13.7013 3.79656 13.6457C3.73336 13.59 3.65916 13.5483 3.57878 13.5232C3.49839 13.4981 3.41363 13.4903 3.33 13.5001ZM14 9.00008C14 9.39791 14.158 9.77944 14.4393 10.0607C14.7206 10.342 15.1022 10.5001 15.5 10.5001C15.8978 10.5001 16.2794 10.342 16.5607 10.0607C16.842 9.77944 17 9.39791 17 9.00008C17 8.60226 16.842 8.22073 16.5607 7.93942C16.2794 7.65812 15.8978 7.50008 15.5 7.50008C15.1022 7.50008 14.7206 7.65812 14.4393 7.93942C14.158 8.22073 14 8.60226 14 9.00008ZM8.5 11.0001C8.64594 11.002 8.79052 10.9719 8.9236 10.9119C9.05667 10.852 9.17501 10.7637 9.27031 10.6531C9.3656 10.5426 9.43555 10.4125 9.47523 10.272C9.51491 10.1316 9.52336 9.98415 9.5 9.84008L8.23 2.29008C8.20538 2.22569 8.20538 2.15448 8.23 2.09008C8.26051 2.0494 8.3027 2.01899 8.35094 2.00291C8.39918 1.98683 8.45118 1.98584 8.5 2.00008H16.5C16.7652 2.00008 17.0196 1.89473 17.2071 1.70719C17.3946 1.51965 17.5 1.2653 17.5 1.00008C17.5 0.734867 17.3946 0.480513 17.2071 0.292976C17.0196 0.10544 16.7652 8.31726e-05 16.5 8.31726e-05H7C6.85406 -0.00179908 6.70948 0.0282869 6.5764 0.0882289C6.44333 0.148171 6.32499 0.236516 6.22969 0.34706C6.1344 0.457605 6.06445 0.58767 6.02477 0.728124C5.98509 0.868577 5.97664 1.01601 6 1.16008L7.5 10.1601C7.53833 10.3967 7.66039 10.6117 7.84394 10.7659C8.02748 10.9201 8.26031 11.0032 8.5 11.0001Z" fill="white"/>
</svg>
