<svg width="27" height="24" viewBox="0 0 27 24" fill="none" xmlns="http://www.w3.org/2000/svg">
<path d="M2.38026 2.38028C3.83034 0.929938 5.77526 0.0816367 7.82475 0.00559207C9.87425 -0.0704526 11.8767 0.631386 13.4303 1.97028C14.9824 0.633616 16.9822 -0.0674326 19.0293 0.00748124C21.0763 0.0823951 23.0195 0.927743 24.4698 2.37429C25.9202 3.82083 26.7706 5.76181 26.8509 7.80864C26.9312 9.85547 26.2353 11.8571 24.9028 13.4128L15.1965 23.1503C14.7506 23.5964 14.1525 23.8574 13.5222 23.8811C12.8918 23.9047 12.2759 23.6892 11.7978 23.2778L11.6603 23.1515L1.95526 13.4128C0.62337 11.8584 -0.072767 9.85866 0.00602721 7.81325C0.0848215 5.76785 0.93274 3.82755 2.38026 2.38028ZM4.14776 4.14778C3.12556 5.17026 2.53632 6.54708 2.50234 7.99249C2.46836 9.4379 2.99224 10.8409 3.96526 11.9103L4.14776 12.1028L13.429 21.384L20.0578 14.7528L15.639 10.3353L14.314 11.6603C13.6109 12.3638 12.657 12.7591 11.6624 12.7593C10.6677 12.7596 9.71374 12.3647 9.01026 11.6615C8.30677 10.9584 7.91142 10.0046 7.91119 9.00991C7.91096 8.01527 8.30585 7.06127 9.00901 6.35778L11.6365 3.72903C10.5909 2.89426 9.28208 2.4595 7.94485 2.50279C6.60763 2.54609 5.32963 3.06462 4.34026 3.96528L4.14776 4.14778ZM14.7553 7.68278C14.9897 7.44844 15.3076 7.3168 15.639 7.3168C15.9705 7.3168 16.2883 7.44844 16.5228 7.68278L21.8253 12.9853L22.7103 12.1028C23.7496 11.0642 24.3413 9.66018 24.3588 8.19098C24.3763 6.72179 23.8183 5.30405 22.804 4.24097C21.7898 3.17789 20.3998 2.55387 18.9314 2.50235C17.463 2.45082 16.0328 2.9759 14.9465 3.96528L14.7553 4.14778L10.7778 8.12528C10.5611 8.3418 10.4315 8.63033 10.4135 8.93611C10.3955 9.24189 10.4905 9.54362 10.6803 9.78403L10.7778 9.89278C10.9943 10.1094 11.2828 10.2391 11.5886 10.257C11.8944 10.275 12.1961 10.1801 12.4365 9.99028L12.5453 9.89278L14.7553 7.68278Z" fill="white"/>
</svg>
